<svg xmlns="http://www.w3.org/2000/svg" width="115.481" height="115.481" viewBox="0 0 115.481 115.481"><defs><style>.a{fill:#ffbf00;}.b{stroke:#000;stroke-linecap:round;stroke-width:2px;}</style></defs><g transform="translate(1 1)"><path class="a" d="M119.165,63.349A55.816,55.816,0,1,1,63.349,7.533a55.856,55.856,0,0,1,55.816,55.816" transform="translate(-6.608 -6.608)"/><path class="a" d="M133.217,63.349c0,30.795-22.326,55.816-50.042,55.816S33.133,94.144,33.133,63.349,55.459,7.533,83.175,7.533s50.042,25.021,50.042,55.816" transform="translate(-26.434 -6.608)"/><path class="a" d="M13.307,63.349c0-30.795,22.326-55.816,50.042-55.816a55.816,55.816,0,0,0,0,111.632c-27.716,0-50.042-25.021-50.042-55.816" transform="translate(-6.608 -6.608)"/><path class="b" d="M289.133,184.741h11.548V127H289.133Z" transform="translate(-224.694 -99.13)"/><path class="b" d="M289.133,184.741h5.774V127h-5.774Z" transform="translate(-224.694 -99.13)"/><path d="M169.667,184.741h11.548V127H169.667Z" transform="translate(-132.173 -99.13)"/><path d="M169.667,184.741h5.774V127h-5.774Z" transform="translate(-132.173 -99.13)"/><g transform="translate(-1 -1)"><path class="a" d="M56.741,114.481a57.741,57.741,0,1,1,57.741-57.741A57.91,57.91,0,0,1,56.741,114.481Zm0-111.632a53.891,53.891,0,1,0,53.891,53.891A54.05,54.05,0,0,0,56.741,2.849Z" transform="translate(1 1)"/><path d="M294.073,180.057H282.525a1.818,1.818,0,0,1-1.925-1.925V120.392a1.818,1.818,0,0,1,1.925-1.925h11.548A1.818,1.818,0,0,1,296,120.392v57.741A1.818,1.818,0,0,1,294.073,180.057Zm-9.623-3.849h7.7V122.316h-7.7Z" transform="translate(-217.085 -91.521)"/><path d="M174.607,180.057H163.059a1.818,1.818,0,0,1-1.925-1.925V120.392a1.818,1.818,0,0,1,1.925-1.925h11.548a1.818,1.818,0,0,1,1.925,1.925v57.741A1.818,1.818,0,0,1,174.607,180.057Zm-9.624-3.849h7.7V122.316h-7.7Z" transform="translate(-124.565 -91.521)"/></g></g></svg>